<svg width="32.000000" height="32.000000" viewBox="0 0 32 32" fill="none" xmlns="http://www.w3.org/2000/svg" xmlns:xlink="http://www.w3.org/1999/xlink">
	<desc>
			Created with Pixso.
	</desc>
	<defs/>
	<rect id="\Icon" rx="0.000000" width="31.000000" height="31.000000" transform="translate(0.500000 0.500000)" fill="#FFFFFF" fill-opacity="0"/>
	<mask id="mask1_14803" mask-type="alpha" maskUnits="userSpaceOnUse" x="0.000000" y="0.000000" width="32.000000" height="32.000000">
		<path id="Mask" d="M16 14.66C19.31 14.66 22 11.98 22 8.66C22 5.35 19.31 2.66 16 2.66C12.68 2.66 10 5.35 10 8.66C10 11.98 12.68 14.66 16 14.66ZM16 12C17.84 12 19.33 10.5 19.33 8.66C19.33 6.82 17.84 5.33 16 5.33C14.15 5.33 12.66 6.82 12.66 8.66C12.66 10.5 14.15 12 16 12ZM16 20C14.94 20 13.9 20.2 12.93 20.6C11.96 21.01 11.08 21.6 10.34 22.34C9.6 23.08 9.01 23.96 8.6 24.93C8.2 25.9 8 26.94 8 28C8 28.73 7.4 29.33 6.66 29.33C5.93 29.33 5.33 28.73 5.33 28C5.33 26.59 5.6 25.21 6.14 23.91C6.68 22.62 7.46 21.44 8.45 20.45C9.44 19.46 10.62 18.68 11.91 18.14C13.21 17.6 14.59 17.33 16 17.33C17.4 17.33 18.78 17.6 20.08 18.14C21.37 18.68 22.55 19.46 23.54 20.45C24.53 21.44 25.31 22.62 25.85 23.91C26.39 25.21 26.66 26.59 26.66 28C26.66 28.73 26.06 29.33 25.33 29.33C24.59 29.33 24 28.73 24 28C24 26.94 23.79 25.9 23.39 24.93C22.98 23.96 22.39 23.08 21.65 22.34C20.91 21.6 20.03 21.01 19.06 20.6C18.09 20.2 17.05 20 16 20Z" fill="#01101E" fill-opacity="1.000000" fill-rule="evenodd"/>
	</mask>
	<g mask="url(#mask1_14803)">
		<rect id="Black" rx="0.000000" width="31.000000" height="31.000000" transform="translate(0.500000 0.500000)" fill="#FFFFFF" fill-opacity="0"/>
		<rect id="Danger" rx="0.000000" width="31.000000" height="31.000000" transform="translate(0.500000 0.500000)" fill="currentColor" fill-opacity="1.000000"/>
	</g>
</svg>
